# xmcd
#
# Track frame offsets: 
#        150
#        15331
#        31562
#        45980
#        62106
#        74868
#        89353
#        105144
#        121723
#        137475
#        149826
#        165680
#        181861
#        205585
#        220771
#        236821
#        252515
#        266873
#        283648
#        299582
#
# Disc length: 4208 seconds
#
# Revision: 0
# Processed by: cddbd v1.5.2PL0 Copyright (c) Steve Scherf et al.
# Submitted via: ExactAudioCopy v1.0b3
#
DISCID=27106e14
DTITLE=Various Artist - Dance Area Vol. 1 - CD 2
DYEAR=1900
DGENRE=
TTITLE0=Lazard - I Am Alive (Original Club Radio Mix)
TTITLE1=Siria - Desenchantee (Radio Mix)
TTITLE2=Verano - Rhythm Of The Night (Mad Summer Radio Edit)
TTITLE3=STFU - Urgent (Degrees Radio Mix)
TTITLE4=Paffendorf Vs. The Real Booty Babes - On and On 2008 (Club Radio
TTITLE4=Edit)
TTITLE5=Alex Megane - Something (Rave Allstars Radio Mix)
TTITLE6=Captain Hollywood - More and More (Recall) (Scotty Vs. Full Gain
TTITLE6=er Radio Edit)
TTITLE7=Brooklyn Bounce - Get Ready To Bounce Recall 08 (Single Edit)
TTITLE8=Massman Pres. Ristricted Area - Restricted Area (Radio Edit)
TTITLE9=Ultrabeat Vs. Darren Styles - Discolights (Radio Edit)
TTITLE10=DJ MNS Vs. E-Maxx - Nostra Culpa (DJ E-Maxx Radio Edit)
TTITLE11=The Real Booty Babes - Played-A-Live (Radio Edit)
TTITLE12=Millenium 54 - I Don’t Want To Miss A Thing (Rocco Vs Bass-T 
TTITLE12=Mix)
TTITLE13=Bassrockerz Pres. Elena - Surrender (DJ Gollum Remix Radio)
TTITLE14=Empyre One Feat. Scarlet - I Turn To You (Radio Mix)
TTITLE15=Jan Wayne And Scarlet - Wish You Were Here (Handz Up Edit)
TTITLE16=Playahitty - The Summer Is Magic 2008 (Emanuele Asti Short)
TTITLE17=Blogbusters - Forever Young (Ultra Flirt Radio)
TTITLE18=Ultra Flirt - Dancing With Tears In My Eyes (Original Radio E
TTITLE18=dit)
TTITLE19=The Vamprockerz - This Life (Ippytraxx Bigroom Radio Edit)
EXTD=
EXTT0=
EXTT1=
EXTT2=
EXTT3=
EXTT4=
EXTT5=
EXTT6=
EXTT7=
EXTT8=
EXTT9=
EXTT10=
EXTT11=
EXTT12=
EXTT13=
EXTT14=
EXTT15=
EXTT16=
EXTT17=
EXTT18=
EXTT19=
PLAYORDER=
